<?xml version="1.0" standalone="no"?>
<!DOCTYPE svg PUBLIC "-//W3C//DTD SVG 20010904//EN"
 "http://www.w3.org/TR/2001/REC-SVG-20010904/DTD/svg10.dtd">
<svg version="1.0" xmlns="http://www.w3.org/2000/svg"
 width="700.000000pt" height="700.000000pt" viewBox="0 0 700.000000 700.000000"
 preserveAspectRatio="xMidYMid meet">
<metadata>
Created by potrace 1.14, written by Peter Selinger 2001-2017
</metadata>
<g transform="translate(0.000000,700.000000) scale(0.100000,-0.100000)"
fill="#000000" stroke="none">
<path d="M1385 6412 c-201 -21 -401 -180 -474 -377 -37 -99 -37 -109 -36
-2420 1 -1761 4 -2264 14 -2315 36 -184 131 -357 266 -483 59 -55 191 -139
265 -169 36 -14 101 -34 145 -44 76 -18 179 -19 2320 -19 l2240 0 0 291 0 291
-2200 0 c-1210 0 -2218 4 -2240 8 -80 15 -171 92 -206 175 -23 57 -19 176 10
233 39 79 123 147 201 161 14 2 1017 5 2230 5 l2205 1 0 2330 c0 1548 -3 2331
-10 2332 -19 3 -4700 3 -4730 0z m4150 -584 c4 -4 8 -2808 5 -3429 l0 -65
-1987 0 c-1094 1 -2010 -2 -2037 -6 -28 -4 -52 -6 -54 -3 -5 5 -4 3494 2 3503
5 8 4063 8 4071 0z"/>
<path d="M2338 4957 c-5 -6 -4 -577 1 -578 15 -4 2307 -5 2317 -2 7 3 11 94
11 292 l0 289 -1163 0 c-640 0 -1165 -1 -1166 -1z"/>
</g>
</svg>
